<svg width="627.227" height="175.88" viewBox="0 0 470.42 131.91" class="displayed_equation" xmlns="http://www.w3.org/2000/svg">
  <path d="M 2013.789063 779.021875 L 2506.132813 779.021875" transform="matrix(.1 0 0 -.1 0 131.91)" fill="none" stroke-width="14.836" stroke="#000" stroke-miterlimit="10" />
  <path d="M 2580.390625 779.021875 L 2490.703125 754.998437 C 2490.703125 754.998437 2508.632813 759.803125 2508.632813 779.021875 C 2508.632813 798.240625 2490.703125 803.123437 2490.703125 803.123437 Z M 2580.390625 779.021875" transform="matrix(.1 0 0 -.1 0 131.91)" stroke-width="12.363" stroke-linecap="square" stroke-linejoin="round" stroke="#000" stroke-miterlimit="10" />
  <path d="M410.039063 779.021875L553.671875 779.021875M629.648438 854.451562L629.648438 1004.685937M629.648438 706.639062L629.648438 557.185937M1484.257813 854.451562L1484.257813 1004.646875M1547.578125 779.021875L1717.96875 779.021875M1484.257813 707.38125L1484.257813 557.146875M3119.21875 706.560937L3119.21875 557.146875M3043.203125 779.021875L2899.609375 779.021875M3119.21875 854.4125L3119.21875 1004.646875M3416.484375 854.4125L3416.484375 1004.646875M3416.484375 707.38125L3416.484375 557.146875M3479.765625 779.021875L3650.195313 779.021875M3190.898438 775.115625L3311.445313 775.115625" transform="matrix(.1 0 0 -.1 0 131.91)" fill="none" stroke-width="14.836" stroke-linecap="round" stroke="#000" stroke-miterlimit="10" />
  <path d="M 3342.34375 775.115625 L 3282.65625 759.139062 L 3282.65625 791.13125 Z M 3342.34375 775.115625" transform="matrix(.1 0 0 -.1 0 131.91)" stroke-width="14.836" stroke-linecap="square" stroke="#000" stroke-miterlimit="10" />
  <path d="M30.527344 51.75C30.527344 50.699219 30.566406 50.378906 31.84375 50.378906L31.84375 49.972656 27.984375 49.972656 27.984375 50.378906C29.222656 50.378906 29.289063 50.699219 29.289063 51.75L29.289063 57.046875C29.289063 58.246094 29.195313 58.40625 27.984375 58.40625L27.984375 58.808594 31.84375 58.808594 31.84375 58.40625C30.632813 58.40625 30.527344 58.230469 30.527344 57.046875L30.527344 54.535156 34.9375 54.535156 34.9375 57.046875C34.9375 58.21875 34.828125 58.40625 33.632813 58.40625L33.632813 58.808594 37.480469 58.808594 37.480469 58.40625C36.253906 58.40625 36.160156 58.21875 36.160156 57.046875L36.160156 51.75C36.160156 50.6875 36.203125 50.378906 37.480469 50.378906L37.480469 49.972656 33.632813 49.972656 33.632813 50.378906C34.871094 50.378906 34.9375 50.699219 34.9375 51.75L34.9375 54.007813 30.527344 54.007813 30.527344 51.75M67.714844 49.875L64.542969 49.875 64.542969 50.277344C65.105469 50.277344 65.347656 50.359375 65.5625 50.613281 65.765625 50.84375 65.820313 51.207031 65.820313 52.011719L65.820313 56.371094 65.75 56.371094 60.777344 49.875 58.492188 49.875 58.492188 50.277344C59.09375 50.277344 59.324219 50.410156 59.753906 50.964844L59.753906 56.707031C59.753906 58.066406 59.554688 58.308594 58.492188 58.308594L58.492188 58.710938 61.636719 58.710938 61.636719 58.308594C60.628906 58.308594 60.414063 58.050781 60.414063 56.707031L60.414063 51.621094 60.480469 51.621094 66.046875 58.816406 66.492188 58.816406 66.492188 52.082031C66.492188 51.113281 66.625 50.734375 66.84375 50.546875 67.042969 50.359375 67.230469 50.277344 67.714844 50.277344L67.714844 49.875" />
  <path d="M 725.507813 802.029687 C 725.507813 807.889062 720.78125 812.615625 714.921875 812.615625 C 709.0625 812.615625 704.296875 807.889062 704.296875 802.029687 C 704.296875 796.170312 709.0625 791.44375 714.921875 791.44375 C 720.78125 791.44375 725.507813 796.170312 725.507813 802.029687 Z M 725.507813 749.021875 C 725.507813 754.88125 720.78125 759.607812 714.921875 759.607812 C 709.0625 759.607812 704.296875 754.88125 704.296875 749.021875 C 704.296875 743.1625 709.0625 738.396875 714.921875 738.396875 C 720.78125 738.396875 725.507813 743.1625 725.507813 749.021875 Z M 725.507813 749.021875" transform="matrix(.1 0 0 -.1 0 131.91)" stroke-width="3.985" stroke-linecap="round" stroke-linejoin="round" stroke="#000" stroke-miterlimit="10" />
  <path d="M60.828125 21.449219C60.828125 20.402344 60.867188 20.078125 62.144531 20.078125L62.144531 19.675781 58.285156 19.675781 58.285156 20.078125C59.523438 20.078125 59.589844 20.402344 59.589844 21.449219L59.589844 26.746094C59.589844 27.945313 59.496094 28.105469 58.285156 28.105469L58.285156 28.511719 62.144531 28.511719 62.144531 28.105469C60.933594 28.105469 60.828125 27.933594 60.828125 26.746094L60.828125 24.234375 65.238281 24.234375 65.238281 26.746094C65.238281 27.917969 65.128906 28.105469 63.933594 28.105469L63.933594 28.511719 67.78125 28.511719 67.78125 28.105469C66.554688 28.105469 66.460938 27.917969 66.460938 26.746094L66.460938 21.449219C66.460938 20.386719 66.5 20.078125 67.78125 20.078125L67.78125 19.675781 63.933594 19.675781 63.933594 20.078125C65.171875 20.078125 65.238281 20.402344 65.238281 21.449219L65.238281 23.707031 60.828125 23.707031 60.828125 21.449219M60.828125 80.847656C60.828125 79.800781 60.867188 79.476563 62.144531 79.476563L62.144531 79.074219 58.285156 79.074219 58.285156 79.476563C59.523438 79.476563 59.589844 79.800781 59.589844 80.847656L59.589844 86.148438C59.589844 87.34375 59.496094 87.507813 58.285156 87.507813L58.285156 87.910156 62.144531 87.910156 62.144531 87.507813C60.933594 87.507813 60.828125 87.332031 60.828125 86.148438L60.828125 83.632813 65.238281 83.632813 65.238281 86.148438C65.238281 87.316406 65.128906 87.507813 63.933594 87.507813L63.933594 87.910156 67.78125 87.910156 67.78125 87.507813C66.554688 87.507813 66.460938 87.316406 66.460938 86.148438L66.460938 80.847656C66.460938 79.785156 66.5 79.476563 67.78125 79.476563L67.78125 79.074219 63.933594 79.074219 63.933594 79.476563C65.171875 79.476563 65.238281 79.800781 65.238281 80.847656L65.238281 83.109375 60.828125 83.109375 60.828125 80.847656M110.949219 54.785156L110.949219 53.871094 107.425781 53.871094 107.425781 50.304688 106.457031 50.304688 106.457031 53.871094 102.933594 53.871094 102.933594 54.785156 106.457031 54.785156 106.457031 58.347656 107.425781 58.347656 107.425781 54.785156 110.949219 54.785156M35.003906 109.210938L35.003906 108.808594C34.277344 108.808594 34.007813 108.496094 33.617188 107.609375L30.429688 100.308594 29.878906 100.308594 27.027344 107.058594C26.382813 108.589844 26.195313 108.808594 25.441406 108.808594L25.441406 109.210938 28.265625 109.210938 28.265625 108.808594C27.632813 108.808594 27.363281 108.726563 27.363281 108.347656 27.363281 108.105469 27.429688 107.90625 27.511719 107.691406L28.117188 106.265625 31.558594 106.265625 32.085938 107.476563C32.257813 107.878906 32.3125 108.121094 32.3125 108.308594 32.3125 108.78125 31.789063 108.808594 31.382813 108.808594L31.382813 109.210938zM31.359375 105.726563L28.320313 105.726563 29.835938 101.960938 29.878906 101.960938 31.359375 105.726563M37.585938 104.410156C37.976563 104.046875 38.570313 103.546875 39.269531 103.546875 39.886719 103.546875 40.34375 103.84375 40.34375 104.988281L40.34375 107.652344C40.34375 108.589844 40.265625 108.820313 39.308594 108.820313L39.308594 109.210938 42.496094 109.210938 42.496094 108.820313C41.527344 108.820313 41.460938 108.578125 41.460938 107.652344L41.460938 104.382813C41.90625 104.003906 42.457031 103.546875 43.007813 103.546875 43.640625 103.546875 44.164063 103.84375 44.164063 105.066406L44.164063 107.652344C44.164063 108.472656 44.125 108.820313 43.210938 108.820313L43.210938 109.210938 46.25 109.210938 46.25 108.820313C45.320313 108.820313 45.28125 108.496094 45.28125 107.652344L45.28125 104.90625C45.28125 103.277344 44.59375 102.6875 43.546875 102.6875 42.832031 102.6875 42.148438 103.078125 41.40625 103.804688L41.351563 103.804688C41.085938 103.160156 40.628906 102.6875 39.859375 102.6875 38.945313 102.6875 38.328125 103.183594 37.601563 103.816406L37.546875 103.816406 37.546875 102.726563 37.226563 102.726563 35.542969 103.117188 35.542969 103.507813C35.542969 103.507813 35.703125 103.480469 35.90625 103.480469 36.28125 103.480469 36.472656 103.601563 36.472656 104.085938L36.472656 107.851563C36.472656 108.660156 36.378906 108.820313 35.53125 108.820313L35.53125 109.210938 38.597656 109.210938 38.597656 108.820313C37.761719 108.820313 37.585938 108.660156 37.585938 107.90625L37.585938 104.410156M48.988281 104.410156C49.378906 104.046875 49.96875 103.546875 50.667969 103.546875 51.289063 103.546875 51.746094 103.84375 51.746094 104.988281L51.746094 107.652344C51.746094 108.589844 51.664063 108.820313 50.710938 108.820313L50.710938 109.210938 53.898438 109.210938 53.898438 108.820313C52.929688 108.820313 52.859375 108.578125 52.859375 107.652344L52.859375 104.382813C53.304688 104.003906 53.855469 103.546875 54.40625 103.546875 55.039063 103.546875 55.5625 103.84375 55.5625 105.066406L55.5625 107.652344C55.5625 108.472656 55.523438 108.820313 54.609375 108.820313L54.609375 109.210938 57.648438 109.210938 57.648438 108.820313C56.71875 108.820313 56.679688 108.496094 56.679688 107.652344L56.679688 104.90625C56.679688 103.277344 55.996094 102.6875 54.945313 102.6875 54.234375 102.6875 53.546875 103.078125 52.808594 103.804688L52.753906 103.804688C52.484375 103.160156 52.027344 102.6875 51.261719 102.6875 50.347656 102.6875 49.726563 103.183594 49 103.816406L48.949219 103.816406 48.949219 102.726563 48.625 102.726563 46.945313 103.117188 46.945313 103.507813C46.945313 103.507813 47.105469 103.480469 47.304688 103.480469 47.683594 103.480469 47.871094 103.601563 47.871094 104.085938L47.871094 107.851563C47.871094 108.660156 47.777344 108.820313 46.929688 108.820313L46.929688 109.210938 49.996094 109.210938 49.996094 108.820313C49.164063 108.820313 48.988281 108.660156 48.988281 107.90625L48.988281 104.410156M61.46875 102.6875C59.65625 102.6875 58.457031 104.003906 58.457031 105.957031 58.457031 108.132813 59.585938 109.34375 61.46875 109.34375 63.21875 109.34375 64.453125 108.160156 64.453125 105.902344 64.453125 103.910156 63.3125 102.6875 61.46875 102.6875zM61.414063 103.199219C62.613281 103.199219 63.21875 104.316406 63.21875 105.96875 63.21875 108.160156 62.625 108.808594 61.523438 108.808594 60.367188 108.820313 59.707031 107.917969 59.707031 105.78125 59.707031 104.058594 60.394531 103.199219 61.414063 103.199219M71.367188 105.082031C71.367188 103.535156 70.789063 102.6875 69.566406 102.6875 68.71875 102.6875 68.128906 103.171875 67.402344 103.816406L67.347656 103.816406 67.359375 102.726563 67.050781 102.726563 65.34375 103.117188 65.34375 103.507813C65.34375 103.507813 65.476563 103.480469 65.707031 103.480469 66.070313 103.480469 66.273438 103.589844 66.273438 104.074219L66.273438 107.851563C66.273438 108.605469 66.230469 108.832031 65.328125 108.832031L65.328125 109.210938 68.410156 109.210938 68.410156 108.832031C67.441406 108.832031 67.386719 108.605469 67.386719 107.851563L67.386719 104.394531C67.792969 104.03125 68.289063 103.546875 69.015625 103.546875 69.621094 103.546875 70.253906 103.804688 70.253906 105.417969L70.253906 107.851563C70.253906 108.605469 70.210938 108.832031 69.257813 108.832031L69.257813 109.210938 72.363281 109.210938 72.363281 108.832031C71.460938 108.832031 71.367188 108.605469 71.367188 107.851563L71.367188 105.082031M74.648438 99.890625C74.179688 99.890625 73.882813 100.238281 73.882813 100.644531 73.882813 101.058594 74.191406 101.410156 74.648438 101.410156 75.121094 101.410156 75.417969 101.058594 75.417969 100.644531 75.417969 100.238281 75.121094 99.890625 74.648438 99.890625zM76.15625 108.832031C75.253906 108.832031 75.1875 108.632813 75.1875 107.851563L75.1875 102.726563 74.839844 102.726563 73.144531 103.105469 73.144531 103.496094C73.144531 103.496094 73.292969 103.46875 73.480469 103.46875 73.871094 103.46875 74.070313 103.519531 74.070313 104.097656L74.070313 107.851563C74.070313 108.617188 74.03125 108.832031 73.128906 108.832031L73.128906 109.210938 76.15625 109.210938 76.15625 108.832031M80.640625 108.375C80.722656 108.96875 80.859375 109.277344 81.449219 109.277344 82.132813 109.277344 82.457031 108.996094 82.902344 108.347656L82.699219 108.132813C82.511719 108.335938 82.324219 108.472656 82.066406 108.472656 81.785156 108.472656 81.664063 108.363281 81.664063 107.8125L81.664063 104.757813C81.664063 103.359375 81.113281 102.6875 79.648438 102.6875 78.179688 102.6875 77.28125 103.414063 77.28125 104.167969 77.28125 104.609375 77.578125 104.8125 77.84375 104.8125 78.222656 104.8125 78.4375 104.609375 78.4375 104.195313 78.4375 103.386719 78.570313 103.105469 79.335938 103.105469 80.144531 103.105469 80.546875 103.546875 80.546875 104.71875L80.546875 105.308594C79.390625 105.671875 77.011719 106.023438 77.011719 107.796875 77.011719 108.660156 77.578125 109.304688 78.609375 109.304688 79.472656 109.304688 79.957031 108.925781 80.589844 108.375zM80.546875 107.972656C80.089844 108.347656 79.605469 108.566406 79.164063 108.566406 78.585938 108.566406 78.195313 108.148438 78.195313 107.476563 78.195313 106.425781 79.324219 106.0625 80.546875 105.753906L80.546875 107.972656M149.398438 54.101563C150.515625 53.808594 151.3125 53.269531 151.3125 52.074219 151.3125 50.742188 150.410156 49.972656 148.015625 49.972656L144.382813 49.972656 144.382813 50.378906C145.472656 50.378906 145.6875 50.527344 145.6875 51.601563L145.6875 57.101563C145.6875 58.21875 145.472656 58.40625 144.382813 58.40625L144.382813 58.808594 148.527344 58.808594C150.53125 58.808594 151.742188 57.964844 151.742188 56.429688 151.742188 54.964844 150.542969 54.34375 149.398438 54.15625zM146.925781 53.941406L146.925781 50.539063C147.195313 50.511719 147.476563 50.5 147.734375 50.5 149.371094 50.5 149.976563 51.128906 149.976563 52.179688 149.976563 53.402344 149.46875 53.941406 147.839844 53.941406zM146.925781 54.507813L147.867188 54.507813C149.117188 54.507813 150.328125 54.925781 150.328125 56.457031 150.328125 58.164063 149.050781 58.3125 147.894531 58.3125 147.570313 58.3125 147.246094 58.300781 146.925781 58.273438L146.925781 54.507813M181.320313 52.179688L181.238281 49.972656 174.085938 49.972656 174.085938 50.378906C175.054688 50.378906 175.390625 50.566406 175.390625 51.496094L175.390625 57.25C175.390625 58.246094 175.171875 58.40625 174.085938 58.40625L174.085938 58.808594 178.023438 58.808594 178.023438 58.40625C176.976563 58.40625 176.628906 58.246094 176.628906 57.332031L176.628906 54.507813 178.214844 54.507813C179.367188 54.507813 179.640625 54.683594 179.640625 55.769531L180.09375 55.769531 180.09375 52.652344 179.640625 52.652344C179.640625 53.738281 179.367188 53.980469 178.214844 53.980469L176.628906 53.980469 176.628906 50.578125 178.765625 50.578125C180.527344 50.578125 180.648438 50.902344 180.890625 52.179688L181.320313 52.179688M151.820313 21.878906L151.738281 19.675781 144.585938 19.675781 144.585938 20.078125C145.554688 20.078125 145.890625 20.265625 145.890625 21.195313L145.890625 26.949219C145.890625 27.945313 145.671875 28.105469 144.585938 28.105469L144.585938 28.511719 148.523438 28.511719 148.523438 28.105469C147.476563 28.105469 147.128906 27.945313 147.128906 27.03125L147.128906 24.207031 148.714844 24.207031C149.867188 24.207031 150.140625 24.382813 150.140625 25.472656L150.59375 25.472656 150.59375 22.351563 150.140625 22.351563C150.140625 23.441406 149.867188 23.683594 148.714844 23.683594L147.128906 23.683594 147.128906 20.277344 149.265625 20.277344C151.027344 20.277344 151.148438 20.601563 151.390625 21.878906L151.820313 21.878906M151.820313 81.28125L151.738281 79.074219 144.585938 79.074219 144.585938 79.476563C145.554688 79.476563 145.890625 79.667969 145.890625 80.59375L145.890625 86.351563C145.890625 87.34375 145.671875 87.507813 144.585938 87.507813L144.585938 87.910156 148.523438 87.910156 148.523438 87.507813C147.476563 87.507813 147.128906 87.34375 147.128906 86.429688L147.128906 83.605469 148.714844 83.605469C149.867188 83.605469 150.140625 83.78125 150.140625 84.871094L150.59375 84.871094 150.59375 81.75 150.140625 81.75C150.140625 82.839844 149.867188 83.082031 148.714844 83.082031L147.128906 83.082031 147.128906 79.679688 149.265625 79.679688C151.027344 79.679688 151.148438 80.003906 151.390625 81.28125L151.820313 81.28125M124 104.601563C125.117188 104.308594 125.910156 103.769531 125.910156 102.574219 125.910156 101.242188 125.007813 100.472656 122.617188 100.472656L118.984375 100.472656 118.984375 100.878906C120.074219 100.878906 120.289063 101.027344 120.289063 102.101563L120.289063 107.601563C120.289063 108.71875 120.074219 108.90625 118.984375 108.90625L118.984375 109.308594 123.128906 109.308594C125.128906 109.308594 126.339844 108.464844 126.339844 106.929688 126.339844 105.464844 125.144531 104.84375 124 104.65625zM121.527344 104.441406L121.527344 101.039063C121.796875 101.011719 122.078125 101 122.332031 101 123.972656 101 124.578125 101.628906 124.578125 102.679688 124.578125 103.902344 124.066406 104.441406 122.441406 104.441406zM121.527344 105.007813L122.46875 105.007813C123.71875 105.007813 124.929688 105.425781 124.929688 106.957031 124.929688 108.664063 123.652344 108.8125 122.492188 108.8125 122.171875 108.8125 121.847656 108.800781 121.527344 108.773438L121.527344 105.007813M130.269531 102.789063C128.453125 102.789063 127.257813 104.105469 127.257813 106.054688 127.257813 108.234375 128.386719 109.445313 130.269531 109.445313 132.019531 109.445313 133.253906 108.261719 133.253906 106.003906 133.253906 104.011719 132.113281 102.789063 130.269531 102.789063zM130.214844 103.300781C131.414063 103.300781 132.019531 104.414063 132.019531 106.070313 132.019531 108.261719 131.425781 108.90625 130.324219 108.90625 129.167969 108.917969 128.507813 108.019531 128.507813 105.878906 128.507813 104.160156 129.195313 103.300781 130.214844 103.300781M136.160156 102.828125L135.839844 102.828125 134.171875 103.230469 134.171875 103.609375C134.171875 103.609375 134.320313 103.582031 134.589844 103.582031 135.070313 103.582031 135.070313 103.824219 135.070313 104.308594L135.070313 108.003906C135.070313 108.757813 134.976563 108.917969 134.089844 108.917969L134.089844 109.308594 137.453125 109.308594 137.453125 108.917969C136.445313 108.917969 136.1875 108.785156 136.1875 107.9375L136.1875 104.871094C136.511719 104.332031 136.941406 103.769531 137.25 103.769531 137.414063 103.769531 137.679688 104.226563 138.125 104.226563 138.421875 104.226563 138.714844 104.011719 138.714844 103.5 138.714844 103.042969 138.460938 102.746094 137.9375 102.746094 137.289063 102.746094 136.886719 103.21875 136.203125 104.214844L136.160156 104.214844 136.160156 102.828125M142.171875 102.789063C140.355469 102.789063 139.15625 104.105469 139.15625 106.054688 139.15625 108.234375 140.289063 109.445313 142.171875 109.445313 143.917969 109.445313 145.15625 108.261719 145.15625 106.003906 145.15625 104.011719 144.011719 102.789063 142.171875 102.789063zM142.117188 103.300781C143.3125 103.300781 143.917969 104.414063 143.917969 106.070313 143.917969 108.261719 143.328125 108.90625 142.222656 108.90625 141.066406 108.917969 140.40625 108.019531 140.40625 105.878906 140.40625 104.160156 141.09375 103.300781 142.117188 103.300781M152.070313 105.183594C152.070313 103.636719 151.492188 102.789063 150.265625 102.789063 149.417969 102.789063 148.828125 103.269531 148.101563 103.917969L148.046875 103.917969 148.0625 102.828125 147.753906 102.828125 146.042969 103.21875 146.042969 103.609375C146.042969 103.609375 146.179688 103.582031 146.40625 103.582031 146.769531 103.582031 146.972656 103.6875 146.972656 104.171875L146.972656 107.953125C146.972656 108.707031 146.929688 108.933594 146.03125 108.933594L146.03125 109.308594 149.109375 109.308594 149.109375 108.933594C148.140625 108.933594 148.089844 108.707031 148.089844 107.953125L148.089844 104.496094C148.492188 104.132813 148.988281 103.648438 149.714844 103.648438 150.320313 103.648438 150.953125 103.902344 150.953125 105.519531L150.953125 107.953125C150.953125 108.707031 150.914063 108.933594 149.957031 108.933594L149.957031 109.308594 153.0625 109.308594 153.0625 108.933594C152.164063 108.933594 152.070313 108.707031 152.070313 107.953125L152.070313 105.183594M160.441406 108.097656C160.105469 108.476563 159.929688 108.652344 159.496094 108.652344 158.976563 108.652344 158.851563 108.328125 158.851563 107.375L158.851563 103.511719 160.371094 103.511719 160.371094 102.949219 158.851563 102.949219 158.867188 101.105469 158.515625 101.105469C158.03125 102.25 157.628906 102.816406 156.996094 103.203125L156.996094 103.511719 157.738281 103.511719 157.738281 107.75C157.738281 108.960938 158.128906 109.445313 159.027344 109.445313 159.890625 109.445313 160.171875 109.042969 160.695313 108.316406L160.441406 108.097656M163.261719 102.828125L162.9375 102.828125 161.269531 103.230469 161.269531 103.609375C161.269531 103.609375 161.417969 103.582031 161.6875 103.582031 162.171875 103.582031 162.171875 103.824219 162.171875 104.308594L162.171875 108.003906C162.171875 108.757813 162.078125 108.917969 161.191406 108.917969L161.191406 109.308594 164.550781 109.308594 164.550781 108.917969C163.542969 108.917969 163.289063 108.785156 163.289063 107.9375L163.289063 104.871094C163.609375 104.332031 164.039063 103.769531 164.351563 103.769531 164.511719 103.769531 164.78125 104.226563 165.226563 104.226563 165.519531 104.226563 165.816406 104.011719 165.816406 103.5 165.816406 103.042969 165.5625 102.746094 165.035156 102.746094 164.390625 102.746094 163.988281 103.21875 163.300781 104.214844L163.261719 104.214844 163.261719 102.828125M167.851563 99.988281C167.378906 99.988281 167.082031 100.339844 167.082031 100.742188 167.082031 101.160156 167.390625 101.511719 167.851563 101.511719 168.320313 101.511719 168.617188 101.160156 168.617188 100.742188 168.617188 100.339844 168.320313 99.988281 167.851563 99.988281zM169.355469 108.933594C168.453125 108.933594 168.386719 108.730469 168.386719 107.953125L168.386719 102.828125 168.039063 102.828125 166.34375 103.203125 166.34375 103.59375C166.34375 103.59375 166.492188 103.566406 166.679688 103.566406 167.070313 103.566406 167.273438 103.621094 167.273438 104.199219L167.273438 107.953125C167.273438 108.71875 167.230469 108.933594 166.328125 108.933594L166.328125 109.308594 169.355469 109.308594 169.355469 108.933594M177.5 108.917969C176.546875 108.917969 176.476563 108.730469 176.476563 107.953125L176.476563 99.816406 176.195313 99.816406 175.605469 100.015625C175.242188 99.84375 174.730469 99.722656 174.085938 99.722656 173.007813 99.722656 172.132813 100.058594 171.609375 100.714844 171.179688 101.308594 171.070313 101.925781 171.070313 102.949219L170.050781 102.949219 170.050781 103.511719 171.070313 103.511719 171.070313 107.710938C171.070313 108.757813 170.921875 108.917969 169.941406 108.917969L169.941406 109.308594 173.425781 109.308594 173.425781 108.917969C172.445313 108.917969 172.1875 108.757813 172.1875 107.710938L172.1875 103.511719 173.789063 103.511719 173.789063 102.949219 172.1875 102.949219 172.1875 102.183594C172.1875 100.675781 172.941406 100.21875 173.828125 100.21875 174.785156 100.21875 175.160156 100.664063 175.347656 101.269531L175.347656 107.953125C175.347656 108.707031 175.296875 108.917969 174.40625 108.917969L174.40625 109.308594 177.5 109.308594 177.5 108.917969M185.0625 108.707031L184.929688 108.707031C184.28125 108.707031 184.121094 108.609375 184.121094 107.816406L184.121094 102.882813 183.796875 102.882813 181.914063 103.082031 181.914063 103.460938C182.777344 103.460938 183.003906 103.527344 183.003906 104.238281L183.003906 107.777344C182.46875 108.246094 182.035156 108.582031 181.351563 108.582031 180.652344 108.582031 180.140625 108.179688 180.140625 106.808594L180.140625 102.882813 179.84375 102.882813 178.109375 103.082031 178.109375 103.460938C178.835938 103.472656 179.023438 103.527344 179.023438 104.253906L179.023438 106.984375C179.023438 108.8125 179.667969 109.445313 180.785156 109.445313 181.648438 109.445313 182.277344 109.042969 182.992188 108.339844L183.058594 108.339844 183.058594 109.378906 183.355469 109.378906 185.0625 109.066406 185.0625 108.707031M188.96875 102.789063C187.15625 102.789063 185.957031 104.105469 185.957031 106.054688 185.957031 108.234375 187.089844 109.445313 188.96875 109.445313 190.71875 109.445313 191.953125 108.261719 191.953125 106.003906 191.953125 104.011719 190.8125 102.789063 188.96875 102.789063zM188.914063 103.300781C190.113281 103.300781 190.71875 104.414063 190.71875 106.070313 190.71875 108.261719 190.128906 108.90625 189.023438 108.90625 187.867188 108.917969 187.207031 108.019531 187.207031 105.878906 187.207031 104.160156 187.894531 103.300781 188.914063 103.300781M194.859375 102.828125L194.539063 102.828125 192.871094 103.230469 192.871094 103.609375C192.871094 103.609375 193.019531 103.582031 193.289063 103.582031 193.773438 103.582031 193.773438 103.824219 193.773438 104.308594L193.773438 108.003906C193.773438 108.757813 193.679688 108.917969 192.789063 108.917969L192.789063 109.308594 196.152344 109.308594 196.152344 108.917969C195.144531 108.917969 194.886719 108.785156 194.886719 107.9375L194.886719 104.871094C195.210938 104.332031 195.640625 103.769531 195.949219 103.769531 196.113281 103.769531 196.382813 104.226563 196.824219 104.226563 197.121094 104.226563 197.414063 104.011719 197.414063 103.5 197.414063 103.042969 197.160156 102.746094 196.636719 102.746094 195.992188 102.746094 195.589844 103.21875 194.902344 104.214844L194.859375 104.214844 194.859375 102.828125M199.449219 99.988281C198.980469 99.988281 198.683594 100.339844 198.683594 100.742188 198.683594 101.160156 198.992188 101.511719 199.449219 101.511719 199.921875 101.511719 200.21875 101.160156 200.21875 100.742188 200.21875 100.339844 199.921875 99.988281 199.449219 99.988281zM200.957031 108.933594C200.054688 108.933594 199.988281 108.730469 199.988281 107.953125L199.988281 102.828125 199.640625 102.828125 197.945313 103.203125 197.945313 103.59375C197.945313 103.59375 198.09375 103.566406 198.28125 103.566406 198.671875 103.566406 198.871094 103.621094 198.871094 104.199219L198.871094 107.953125C198.871094 108.71875 198.832031 108.933594 197.929688 108.933594L197.929688 109.308594 200.957031 109.308594 200.957031 108.933594M208.214844 109.066406L208.214844 108.707031 207.929688 108.707031C207.433594 108.707031 207.257813 108.570313 207.257813 107.871094L207.257813 99.816406 206.894531 99.816406 205.199219 100.285156 205.199219 100.664063C205.199219 100.664063 205.429688 100.636719 205.550781 100.636719 206.074219 100.636719 206.140625 100.757813 206.140625 101.347656L206.140625 103.109375C205.726563 102.882813 205.28125 102.789063 204.839844 102.789063 203.140625 102.789063 201.742188 104.144531 201.742188 106.363281 201.742188 108.085938 202.523438 109.417969 204.042969 109.417969 204.929688 109.417969 205.617188 108.90625 206.128906 108.449219L206.179688 108.449219 206.179688 109.378906 206.492188 109.378906zM206.140625 107.953125C205.671875 108.273438 205.308594 108.449219 204.675781 108.449219 203.53125 108.449219 202.914063 107.695313 202.914063 105.839844 202.914063 104.144531 203.679688 103.324219 204.808594 103.324219 205.644531 103.324219 206.035156 103.847656 206.140625 104.402344L206.140625 107.953125M214.179688 107.386719C213.753906 107.953125 213.335938 108.4375 212.246094 108.4375 211.167969 108.4375 210.148438 107.589844 210.148438 105.730469L214.398438 105.730469C214.328125 103.847656 213.359375 102.789063 211.894531 102.789063 210.320313 102.789063 209.058594 103.863281 209.058594 106.109375 209.058594 108.273438 210.308594 109.445313 211.921875 109.445313 213.308594 109.445313 213.953125 108.597656 214.4375 107.574219zM210.132813 105.234375C210.242188 103.984375 210.777344 103.324219 211.695313 103.324219 212.648438 103.324219 213.09375 104.238281 213.132813 105.234375L210.132813 105.234375M280.425781 51.75C280.425781 50.699219 280.464844 50.378906 281.742188 50.378906L281.742188 49.972656 277.882813 49.972656 277.882813 50.378906C279.121094 50.378906 279.1875 50.699219 279.1875 51.75L279.1875 57.046875C279.1875 58.246094 279.09375 58.40625 277.882813 58.40625L277.882813 58.808594 281.742188 58.808594 281.742188 58.40625C280.53125 58.40625 280.425781 58.230469 280.425781 57.046875L280.425781 54.535156 284.839844 54.535156 284.839844 57.046875C284.839844 58.21875 284.730469 58.40625 283.53125 58.40625L283.53125 58.808594 287.378906 58.808594 287.378906 58.40625C286.15625 58.40625 286.0625 58.21875 286.0625 57.046875L286.0625 51.75C286.0625 50.6875 286.101563 50.378906 287.378906 50.378906L287.378906 49.972656 283.53125 49.972656 283.53125 50.378906C284.769531 50.378906 284.839844 50.699219 284.839844 51.75L284.839844 54.007813 280.425781 54.007813 280.425781 51.75M316.414063 49.875L313.242188 49.875 313.242188 50.277344C313.804688 50.277344 314.046875 50.359375 314.265625 50.613281 314.464844 50.84375 314.519531 51.207031 314.519531 52.011719L314.519531 56.371094 314.453125 56.371094 309.476563 49.875 307.191406 49.875 307.191406 50.277344C307.796875 50.277344 308.023438 50.410156 308.453125 50.964844L308.453125 56.707031C308.453125 58.066406 308.253906 58.308594 307.191406 58.308594L307.191406 58.710938 310.339844 58.710938 310.339844 58.308594C309.328125 58.308594 309.113281 58.050781 309.113281 56.707031L309.113281 51.621094 309.179688 51.621094 314.746094 58.816406 315.191406 58.816406 315.191406 52.082031C315.191406 51.113281 315.328125 50.734375 315.542969 50.546875 315.742188 50.359375 315.929688 50.277344 316.414063 50.277344L316.414063 49.875M309.628906 21.449219C309.628906 20.402344 309.664063 20.078125 310.945313 20.078125L310.945313 19.675781 307.085938 19.675781 307.085938 20.078125C308.320313 20.078125 308.390625 20.402344 308.390625 21.449219L308.390625 26.746094C308.390625 27.945313 308.296875 28.105469 307.085938 28.105469L307.085938 28.511719 310.945313 28.511719 310.945313 28.105469C309.734375 28.105469 309.628906 27.933594 309.628906 26.746094L309.628906 24.234375 314.039063 24.234375 314.039063 26.746094C314.039063 27.917969 313.929688 28.105469 312.734375 28.105469L312.734375 28.511719 316.578125 28.511719 316.578125 28.105469C315.355469 28.105469 315.261719 27.917969 315.261719 26.746094L315.261719 21.449219C315.261719 20.386719 315.300781 20.078125 316.578125 20.078125L316.578125 19.675781 312.734375 19.675781 312.734375 20.078125C313.96875 20.078125 314.039063 20.402344 314.039063 21.449219L314.039063 23.707031 309.628906 23.707031 309.628906 21.449219M309.628906 80.847656C309.628906 79.800781 309.664063 79.476563 310.945313 79.476563L310.945313 79.074219 307.085938 79.074219 307.085938 79.476563C308.320313 79.476563 308.390625 79.800781 308.390625 80.847656L308.390625 86.148438C308.390625 87.34375 308.296875 87.507813 307.085938 87.507813L307.085938 87.910156 310.945313 87.910156 310.945313 87.507813C309.734375 87.507813 309.628906 87.332031 309.628906 86.148438L309.628906 83.632813 314.039063 83.632813 314.039063 86.148438C314.039063 87.316406 313.929688 87.507813 312.734375 87.507813L312.734375 87.910156 316.578125 87.910156 316.578125 87.507813C315.355469 87.507813 315.261719 87.316406 315.261719 86.148438L315.261719 80.847656C315.261719 79.785156 315.300781 79.476563 316.578125 79.476563L316.578125 79.074219 312.734375 79.074219 312.734375 79.476563C313.96875 79.476563 314.039063 79.800781 314.039063 80.847656L314.039063 83.109375 309.628906 83.109375 309.628906 80.847656M343.101563 53.703125C344.21875 53.40625 345.011719 52.871094 345.011719 51.671875 345.011719 50.339844 344.109375 49.574219 341.714844 49.574219L338.085938 49.574219 338.085938 49.976563C339.171875 49.976563 339.390625 50.125 339.390625 51.203125L339.390625 56.703125C339.390625 57.816406 339.171875 58.007813 338.085938 58.007813L338.085938 58.410156 342.226563 58.410156C344.230469 58.410156 345.441406 57.5625 345.441406 56.03125 345.441406 54.5625 344.242188 53.945313 343.101563 53.757813zM340.628906 53.542969L340.628906 50.140625C340.894531 50.113281 341.179688 50.097656 341.433594 50.097656 343.074219 50.097656 343.679688 50.730469 343.679688 51.78125 343.679688 53.003906 343.167969 53.542969 341.539063 53.542969zM340.628906 54.105469L341.566406 54.105469C342.820313 54.105469 344.027344 54.523438 344.027344 56.058594 344.027344 57.765625 342.753906 57.914063 341.59375 57.914063 341.273438 57.914063 340.949219 57.898438 340.628906 57.871094L340.628906 54.105469M376.019531 52.179688L375.9375 49.972656 368.785156 49.972656 368.785156 50.378906C369.753906 50.378906 370.089844 50.566406 370.089844 51.496094L370.089844 57.25C370.089844 58.246094 369.871094 58.40625 368.785156 58.40625L368.785156 58.808594 372.726563 58.808594 372.726563 58.40625C371.675781 58.40625 371.328125 58.246094 371.328125 57.332031L371.328125 54.507813 372.914063 54.507813C374.070313 54.507813 374.339844 54.683594 374.339844 55.769531L374.796875 55.769531 374.796875 52.652344 374.339844 52.652344C374.339844 53.738281 374.070313 53.980469 372.914063 53.980469L371.328125 53.980469 371.328125 50.578125 373.464844 50.578125C375.226563 50.578125 375.347656 50.902344 375.589844 52.179688L376.019531 52.179688M345.519531 21.878906L345.4375 19.675781 338.285156 19.675781 338.285156 20.078125C339.253906 20.078125 339.589844 20.265625 339.589844 21.195313L339.589844 26.949219C339.589844 27.945313 339.371094 28.105469 338.285156 28.105469L338.285156 28.511719 342.226563 28.511719 342.226563 28.105469C341.175781 28.105469 340.828125 27.945313 340.828125 27.03125L340.828125 24.207031 342.414063 24.207031C343.570313 24.207031 343.839844 24.382813 343.839844 25.472656L344.296875 25.472656 344.296875 22.351563 343.839844 22.351563C343.839844 23.441406 343.570313 23.683594 342.414063 23.683594L340.828125 23.683594 340.828125 20.277344 342.964844 20.277344C344.726563 20.277344 344.847656 20.601563 345.089844 21.878906L345.519531 21.878906M345.519531 81.28125L345.4375 79.074219 338.285156 79.074219 338.285156 79.476563C339.253906 79.476563 339.589844 79.667969 339.589844 80.59375L339.589844 86.351563C339.589844 87.34375 339.371094 87.507813 338.285156 87.507813L338.285156 87.910156 342.226563 87.910156 342.226563 87.507813C341.175781 87.507813 340.828125 87.34375 340.828125 86.429688L340.828125 83.605469 342.414063 83.605469C343.570313 83.605469 343.839844 83.78125 343.839844 84.871094L344.296875 84.871094 344.296875 81.75 343.839844 81.75C343.839844 82.839844 343.570313 83.082031 342.414063 83.082031L340.828125 83.082031 340.828125 79.679688 342.964844 79.679688C344.726563 79.679688 344.847656 80.003906 345.089844 81.28125L345.519531 81.28125M261.804688 109.308594L261.804688 108.90625C261.078125 108.90625 260.808594 108.597656 260.417969 107.710938L257.230469 100.40625 256.679688 100.40625 253.828125 107.160156C253.179688 108.691406 252.992188 108.90625 252.242188 108.90625L252.242188 109.308594 255.0625 109.308594 255.0625 108.90625C254.433594 108.90625 254.164063 108.824219 254.164063 108.449219 254.164063 108.207031 254.230469 108.003906 254.3125 107.789063L254.917969 106.363281 258.359375 106.363281 258.882813 107.574219C259.058594 107.980469 259.113281 108.222656 259.113281 108.410156 259.113281 108.878906 258.589844 108.90625 258.183594 108.90625L258.183594 109.308594zM258.15625 105.828125L255.117188 105.828125 256.636719 102.0625 256.679688 102.0625 258.15625 105.828125M264.386719 104.507813C264.777344 104.144531 265.371094 103.648438 266.070313 103.648438 266.6875 103.648438 267.144531 103.945313 267.144531 105.085938L267.144531 107.75C267.144531 108.691406 267.0625 108.917969 266.109375 108.917969L266.109375 109.308594 269.296875 109.308594 269.296875 108.917969C268.328125 108.917969 268.261719 108.675781 268.261719 107.75L268.261719 104.480469C268.703125 104.105469 269.257813 103.648438 269.808594 103.648438 270.441406 103.648438 270.964844 103.945313 270.964844 105.167969L270.964844 107.75C270.964844 108.570313 270.921875 108.917969 270.007813 108.917969L270.007813 109.308594 273.046875 109.308594 273.046875 108.917969C272.121094 108.917969 272.082031 108.597656 272.082031 107.75L272.082031 105.007813C272.082031 103.378906 271.394531 102.789063 270.34375 102.789063 269.632813 102.789063 268.945313 103.175781 268.207031 103.902344L268.152344 103.902344C267.882813 103.257813 267.429688 102.789063 266.660156 102.789063 265.746094 102.789063 265.128906 103.285156 264.402344 103.917969L264.347656 103.917969 264.347656 102.828125 264.023438 102.828125 262.34375 103.21875 262.34375 103.609375C262.34375 103.609375 262.503906 103.582031 262.707031 103.582031 263.082031 103.582031 263.273438 103.703125 263.273438 104.1875L263.273438 107.953125C263.273438 108.757813 263.179688 108.917969 262.328125 108.917969L262.328125 109.308594 265.398438 109.308594 265.398438 108.917969C264.5625 108.917969 264.386719 108.757813 264.386719 108.003906L264.386719 104.507813M275.886719 104.507813C276.277344 104.144531 276.871094 103.648438 277.570313 103.648438 278.1875 103.648438 278.644531 103.945313 278.644531 105.085938L278.644531 107.75C278.644531 108.691406 278.5625 108.917969 277.609375 108.917969L277.609375 109.308594 280.796875 109.308594 280.796875 108.917969C279.828125 108.917969 279.761719 108.675781 279.761719 107.75L279.761719 104.480469C280.203125 104.105469 280.757813 103.648438 281.308594 103.648438 281.941406 103.648438 282.464844 103.945313 282.464844 105.167969L282.464844 107.75C282.464844 108.570313 282.421875 108.917969 281.507813 108.917969L281.507813 109.308594 284.546875 109.308594 284.546875 108.917969C283.621094 108.917969 283.582031 108.597656 283.582031 107.75L283.582031 105.007813C283.582031 103.378906 282.894531 102.789063 281.84375 102.789063 281.132813 102.789063 280.445313 103.175781 279.707031 103.902344L279.652344 103.902344C279.382813 103.257813 278.929688 102.789063 278.160156 102.789063 277.246094 102.789063 276.628906 103.285156 275.902344 103.917969L275.847656 103.917969 275.847656 102.828125 275.523438 102.828125 273.84375 103.21875 273.84375 103.609375C273.84375 103.609375 274.003906 103.582031 274.207031 103.582031 274.582031 103.582031 274.773438 103.703125 274.773438 104.1875L274.773438 107.953125C274.773438 108.757813 274.679688 108.917969 273.828125 108.917969L273.828125 109.308594 276.898438 109.308594 276.898438 108.917969C276.0625 108.917969 275.886719 108.757813 275.886719 108.003906L275.886719 104.507813M288.269531 102.789063C286.453125 102.789063 285.257813 104.105469 285.257813 106.054688 285.257813 108.234375 286.386719 109.445313 288.269531 109.445313 290.019531 109.445313 291.253906 108.261719 291.253906 106.003906 291.253906 104.011719 290.113281 102.789063 288.269531 102.789063zM288.214844 103.300781C289.414063 103.300781 290.019531 104.414063 290.019531 106.070313 290.019531 108.261719 289.425781 108.90625 288.324219 108.90625 287.167969 108.917969 286.507813 108.019531 286.507813 105.878906 286.507813 104.160156 287.195313 103.300781 288.214844 103.300781M298.167969 105.183594C298.167969 103.636719 297.589844 102.789063 296.367188 102.789063 295.519531 102.789063 294.929688 103.269531 294.203125 103.917969L294.148438 103.917969 294.160156 102.828125 293.851563 102.828125 292.144531 103.21875 292.144531 103.609375C292.144531 103.609375 292.277344 103.582031 292.507813 103.582031 292.871094 103.582031 293.070313 103.6875 293.070313 104.171875L293.070313 107.953125C293.070313 108.707031 293.03125 108.933594 292.128906 108.933594L292.128906 109.308594 295.210938 109.308594 295.210938 108.933594C294.242188 108.933594 294.1875 108.707031 294.1875 107.953125L294.1875 104.496094C294.59375 104.132813 295.089844 103.648438 295.816406 103.648438 296.421875 103.648438 297.054688 103.902344 297.054688 105.519531L297.054688 107.953125C297.054688 108.707031 297.011719 108.933594 296.058594 108.933594L296.058594 109.308594 299.164063 109.308594 299.164063 108.933594C298.261719 108.933594 298.167969 108.707031 298.167969 107.953125L298.167969 105.183594M301.449219 99.988281C300.980469 99.988281 300.683594 100.339844 300.683594 100.742188 300.683594 101.160156 300.992188 101.511719 301.449219 101.511719 301.921875 101.511719 302.21875 101.160156 302.21875 100.742188 302.21875 100.339844 301.921875 99.988281 301.449219 99.988281zM302.957031 108.933594C302.054688 108.933594 301.988281 108.730469 301.988281 107.953125L301.988281 102.828125 301.640625 102.828125 299.945313 103.203125 299.945313 103.59375C299.945313 103.59375 300.09375 103.566406 300.28125 103.566406 300.671875 103.566406 300.871094 103.621094 300.871094 104.199219L300.871094 107.953125C300.871094 108.71875 300.832031 108.933594 299.929688 108.933594L299.929688 109.308594 302.957031 109.308594 302.957031 108.933594M307.441406 108.476563C307.523438 109.066406 307.65625 109.378906 308.246094 109.378906 308.933594 109.378906 309.257813 109.09375 309.703125 108.449219L309.5 108.234375C309.3125 108.4375 309.121094 108.570313 308.867188 108.570313 308.585938 108.570313 308.464844 108.464844 308.464844 107.910156L308.464844 104.859375C308.464844 103.460938 307.914063 102.789063 306.445313 102.789063 304.980469 102.789063 304.078125 103.511719 304.078125 104.265625 304.078125 104.710938 304.378906 104.910156 304.644531 104.910156 305.023438 104.910156 305.234375 104.710938 305.234375 104.292969 305.234375 103.488281 305.371094 103.203125 306.136719 103.203125 306.945313 103.203125 307.347656 103.648438 307.347656 104.816406L307.347656 105.410156C306.191406 105.773438 303.8125 106.121094 303.8125 107.898438 303.8125 108.757813 304.378906 109.402344 305.410156 109.402344 306.273438 109.402344 306.757813 109.027344 307.390625 108.476563zM307.347656 108.074219C306.890625 108.449219 306.40625 108.664063 305.964844 108.664063 305.382813 108.664063 304.996094 108.246094 304.996094 107.574219 304.996094 106.527344 306.125 106.164063 307.347656 105.855469L307.347656 108.074219M315.09375 99.816406L314.742188 99.816406 313.007813 100.285156 313.007813 100.664063C313.007813 100.664063 313.167969 100.636719 313.382813 100.636719 313.894531 100.636719 313.976563 100.742188 313.976563 101.347656L313.976563 108.90625C314.296875 109.082031 315.078125 109.445313 316.222656 109.445313 318.089844 109.445313 319.449219 108.179688 319.449219 105.773438 319.449219 104.023438 318.535156 102.789063 317.203125 102.789063 316.304688 102.789063 315.601563 103.367188 315.132813 103.929688L315.09375 103.929688zM315.09375 104.523438C315.335938 104.199219 315.925781 103.703125 316.613281 103.703125 317.890625 103.703125 318.226563 104.910156 318.226563 106.203125 318.226563 107.695313 317.742188 108.894531 316.464844 108.894531 315.753906 108.894531 315.347656 108.570313 315.09375 108.261719L315.09375 104.523438M323.371094 102.789063C321.554688 102.789063 320.359375 104.105469 320.359375 106.054688 320.359375 108.234375 321.488281 109.445313 323.371094 109.445313 325.117188 109.445313 326.355469 108.261719 326.355469 106.003906 326.355469 104.011719 325.214844 102.789063 323.371094 102.789063zM323.316406 103.300781C324.511719 103.300781 325.117188 104.414063 325.117188 106.070313 325.117188 108.261719 324.527344 108.90625 323.421875 108.90625 322.265625 108.917969 321.609375 108.019531 321.609375 105.878906 321.609375 104.160156 322.292969 103.300781 323.316406 103.300781M329.359375 102.828125L329.039063 102.828125 327.371094 103.230469 327.371094 103.609375C327.371094 103.609375 327.519531 103.582031 327.789063 103.582031 328.273438 103.582031 328.273438 103.824219 328.273438 104.308594L328.273438 108.003906C328.273438 108.757813 328.179688 108.917969 327.289063 108.917969L327.289063 109.308594 330.652344 109.308594 330.652344 108.917969C329.644531 108.917969 329.386719 108.785156 329.386719 107.9375L329.386719 104.871094C329.710938 104.332031 330.140625 103.769531 330.449219 103.769531 330.613281 103.769531 330.882813 104.226563 331.324219 104.226563 331.621094 104.226563 331.914063 104.011719 331.914063 103.5 331.914063 103.042969 331.660156 102.746094 331.136719 102.746094 330.492188 102.746094 330.089844 103.21875 329.402344 104.214844L329.359375 104.214844 329.359375 102.828125M335.269531 102.789063C333.453125 102.789063 332.257813 104.105469 332.257813 106.054688 332.257813 108.234375 333.386719 109.445313 335.269531 109.445313 337.019531 109.445313 338.253906 108.261719 338.253906 106.003906 338.253906 104.011719 337.113281 102.789063 335.269531 102.789063zM335.214844 103.300781C336.414063 103.300781 337.019531 104.414063 337.019531 106.070313 337.019531 108.261719 336.425781 108.90625 335.324219 108.90625 334.167969 108.917969 333.507813 108.019531 333.507813 105.878906 333.507813 104.160156 334.195313 103.300781 335.214844 103.300781M345.167969 105.183594C345.167969 103.636719 344.589844 102.789063 343.367188 102.789063 342.519531 102.789063 341.929688 103.269531 341.203125 103.917969L341.148438 103.917969 341.160156 102.828125 340.851563 102.828125 339.144531 103.21875 339.144531 103.609375C339.144531 103.609375 339.277344 103.582031 339.507813 103.582031 339.871094 103.582031 340.070313 103.6875 340.070313 104.171875L340.070313 107.953125C340.070313 108.707031 340.03125 108.933594 339.128906 108.933594L339.128906 109.308594 342.210938 109.308594 342.210938 108.933594C341.242188 108.933594 341.1875 108.707031 341.1875 107.953125L341.1875 104.496094C341.59375 104.132813 342.089844 103.648438 342.816406 103.648438 343.421875 103.648438 344.054688 103.902344 344.054688 105.519531L344.054688 107.953125C344.054688 108.707031 344.011719 108.933594 343.058594 108.933594L343.058594 109.308594 346.164063 109.308594 346.164063 108.933594C345.261719 108.933594 345.167969 108.707031 345.167969 107.953125L345.167969 105.183594M353.640625 108.097656C353.304688 108.476563 353.128906 108.652344 352.699219 108.652344 352.175781 108.652344 352.054688 108.328125 352.054688 107.375L352.054688 103.511719 353.574219 103.511719 353.574219 102.949219 352.054688 102.949219 352.066406 101.105469 351.71875 101.105469C351.234375 102.25 350.828125 102.816406 350.195313 103.203125L350.195313 103.511719 350.9375 103.511719 350.9375 107.75C350.9375 108.960938 351.328125 109.445313 352.226563 109.445313 353.089844 109.445313 353.371094 109.042969 353.894531 108.316406L353.640625 108.097656M356.359375 102.828125L356.039063 102.828125 354.371094 103.230469 354.371094 103.609375C354.371094 103.609375 354.519531 103.582031 354.789063 103.582031 355.273438 103.582031 355.273438 103.824219 355.273438 104.308594L355.273438 108.003906C355.273438 108.757813 355.179688 108.917969 354.289063 108.917969L354.289063 109.308594 357.652344 109.308594 357.652344 108.917969C356.644531 108.917969 356.386719 108.785156 356.386719 107.9375L356.386719 104.871094C356.710938 104.332031 357.140625 103.769531 357.449219 103.769531 357.613281 103.769531 357.882813 104.226563 358.324219 104.226563 358.621094 104.226563 358.914063 104.011719 358.914063 103.5 358.914063 103.042969 358.660156 102.746094 358.136719 102.746094 357.492188 102.746094 357.089844 103.21875 356.402344 104.214844L356.359375 104.214844 356.359375 102.828125M360.949219 99.988281C360.480469 99.988281 360.183594 100.339844 360.183594 100.742188 360.183594 101.160156 360.492188 101.511719 360.949219 101.511719 361.421875 101.511719 361.71875 101.160156 361.71875 100.742188 361.71875 100.339844 361.421875 99.988281 360.949219 99.988281zM362.457031 108.933594C361.554688 108.933594 361.488281 108.730469 361.488281 107.953125L361.488281 102.828125 361.140625 102.828125 359.445313 103.203125 359.445313 103.59375C359.445313 103.59375 359.59375 103.566406 359.78125 103.566406 360.171875 103.566406 360.371094 103.621094 360.371094 104.199219L360.371094 107.953125C360.371094 108.71875 360.332031 108.933594 359.429688 108.933594L359.429688 109.308594 362.457031 109.308594 362.457031 108.933594M370.601563 108.917969C369.644531 108.917969 369.578125 108.730469 369.578125 107.953125L369.578125 99.816406 369.296875 99.816406 368.703125 100.015625C368.339844 99.84375 367.828125 99.722656 367.183594 99.722656 366.109375 99.722656 365.234375 100.058594 364.710938 100.714844 364.28125 101.308594 364.171875 101.925781 364.171875 102.949219L363.148438 102.949219 363.148438 103.511719 364.171875 103.511719 364.171875 107.710938C364.171875 108.757813 364.023438 108.917969 363.042969 108.917969L363.042969 109.308594 366.523438 109.308594 366.523438 108.917969C365.542969 108.917969 365.289063 108.757813 365.289063 107.710938L365.289063 103.511719 366.890625 103.511719 366.890625 102.949219 365.289063 102.949219 365.289063 102.183594C365.289063 100.675781 366.039063 100.21875 366.929688 100.21875 367.882813 100.21875 368.261719 100.664063 368.449219 101.269531L368.449219 107.953125C368.449219 108.707031 368.394531 108.917969 367.507813 108.917969L367.507813 109.308594 370.601563 109.308594 370.601563 108.917969M378.261719 108.707031L378.128906 108.707031C377.484375 108.707031 377.320313 108.609375 377.320313 107.816406L377.320313 102.882813 376.996094 102.882813 375.117188 103.082031 375.117188 103.460938C375.976563 103.460938 376.203125 103.527344 376.203125 104.238281L376.203125 107.777344C375.667969 108.246094 375.234375 108.582031 374.550781 108.582031 373.851563 108.582031 373.339844 108.179688 373.339844 106.808594L373.339844 102.882813 373.042969 102.882813 371.308594 103.082031 371.308594 103.460938C372.035156 103.472656 372.222656 103.527344 372.222656 104.253906L372.222656 106.984375C372.222656 108.8125 372.867188 109.445313 373.984375 109.445313 374.847656 109.445313 375.476563 109.042969 376.191406 108.339844L376.257813 108.339844 376.257813 109.378906 376.554688 109.378906 378.261719 109.066406 378.261719 108.707031M382.070313 102.789063C380.253906 102.789063 379.058594 104.105469 379.058594 106.054688 379.058594 108.234375 380.1875 109.445313 382.070313 109.445313 383.820313 109.445313 385.054688 108.261719 385.054688 106.003906 385.054688 104.011719 383.914063 102.789063 382.070313 102.789063zM382.015625 103.300781C383.214844 103.300781 383.820313 104.414063 383.820313 106.070313 383.820313 108.261719 383.226563 108.90625 382.121094 108.90625 380.96875 108.917969 380.308594 108.019531 380.308594 105.878906 380.308594 104.160156 380.992188 103.300781 382.015625 103.300781M387.960938 102.828125L387.640625 102.828125 385.96875 103.230469 385.96875 103.609375C385.96875 103.609375 386.117188 103.582031 386.386719 103.582031 386.871094 103.582031 386.871094 103.824219 386.871094 104.308594L386.871094 108.003906C386.871094 108.757813 386.777344 108.917969 385.890625 108.917969L385.890625 109.308594 389.253906 109.308594 389.253906 108.917969C388.242188 108.917969 387.988281 108.785156 387.988281 107.9375L387.988281 104.871094C388.3125 104.332031 388.742188 103.769531 389.050781 103.769531 389.214844 103.769531 389.480469 104.226563 389.925781 104.226563 390.21875 104.226563 390.515625 104.011719 390.515625 103.5 390.515625 103.042969 390.261719 102.746094 389.734375 102.746094 389.089844 102.746094 388.6875 103.21875 388.003906 104.214844L387.960938 104.214844 387.960938 102.828125M392.550781 99.988281C392.078125 99.988281 391.78125 100.339844 391.78125 100.742188 391.78125 101.160156 392.09375 101.511719 392.550781 101.511719 393.019531 101.511719 393.316406 101.160156 393.316406 100.742188 393.316406 100.339844 393.019531 99.988281 392.550781 99.988281zM394.054688 108.933594C393.15625 108.933594 393.089844 108.730469 393.089844 107.953125L393.089844 102.828125 392.738281 102.828125 391.042969 103.203125 391.042969 103.59375C391.042969 103.59375 391.191406 103.566406 391.378906 103.566406 391.769531 103.566406 391.972656 103.621094 391.972656 104.199219L391.972656 107.953125C391.972656 108.71875 391.929688 108.933594 391.03125 108.933594L391.03125 109.308594 394.054688 109.308594 394.054688 108.933594M401.414063 109.066406L401.414063 108.707031 401.128906 108.707031C400.632813 108.707031 400.457031 108.570313 400.457031 107.871094L400.457031 99.816406 400.09375 99.816406 398.398438 100.285156 398.398438 100.664063C398.398438 100.664063 398.628906 100.636719 398.75 100.636719 399.273438 100.636719 399.34375 100.757813 399.34375 101.347656L399.34375 103.109375C398.925781 102.882813 398.480469 102.789063 398.039063 102.789063 396.34375 102.789063 394.945313 104.144531 394.945313 106.363281 394.945313 108.085938 395.722656 109.417969 397.242188 109.417969 398.132813 109.417969 398.816406 108.90625 399.328125 108.449219L399.382813 108.449219 399.382813 109.378906 399.691406 109.378906zM399.34375 107.953125C398.871094 108.273438 398.507813 108.449219 397.875 108.449219 396.734375 108.449219 396.113281 107.695313 396.113281 105.839844 396.113281 104.144531 396.878906 103.324219 398.007813 103.324219 398.84375 103.324219 399.234375 103.847656 399.34375 104.402344L399.34375 107.953125M407.28125 107.386719C406.851563 107.953125 406.433594 108.4375 405.34375 108.4375 404.269531 108.4375 403.246094 107.589844 403.246094 105.730469L407.496094 105.730469C407.429688 103.847656 406.460938 102.789063 404.996094 102.789063 403.421875 102.789063 402.15625 103.863281 402.15625 106.109375 402.15625 108.273438 403.40625 109.445313 405.023438 109.445313 406.40625 109.445313 407.054688 108.597656 407.539063 107.574219zM403.234375 105.234375C403.339844 103.984375 403.878906 103.324219 404.792969 103.324219 405.746094 103.324219 406.191406 104.238281 406.234375 105.234375L403.234375 105.234375" />
</svg>